<?xml version="1.0" encoding="UTF-8"?>
<svg version="1.1" xmlns="http://www.w3.org/2000/svg" width="512" height="512">
<path d="M0 0 C0.89861252 -0.0033284 1.79722504 -0.0066568 2.72306824 -0.01008606 C4.61656181 -0.01512727 6.51006418 -0.01749526 8.40356445 -0.01733398 C11.273752 -0.01951664 14.14355235 -0.03769188 17.01367188 -0.05664062 C18.86327995 -0.05957605 20.71288983 -0.06155985 22.5625 -0.0625 C23.83018974 -0.07327827 23.83018974 -0.07327827 25.12348938 -0.08427429 C38.63484007 -0.03342624 48.25016117 3.4127512 58.09765625 12.703125 C66.32409682 21.2127709 73.13409079 33.43607895 75.48046875 45.16796875 C84.55900892 46.31840329 84.55900892 46.31840329 92.82421875 43.52734375 C94.5676851 41.44468297 94.5676851 41.44468297 96.06640625 39.2109375 C98.83999877 35.20378588 102.72334186 33.07854581 107.48046875 32.16796875 C114.86428319 31.61945682 120.74076896 32.05733808 127.48046875 35.16796875 C127.68671875 34.59046875 127.89296875 34.01296875 128.10546875 33.41796875 C130.48881531 29.51794711 134.15567048 27.77014978 138.23046875 25.91796875 C144.44618448 24.48357281 150.18385727 24.69864457 156.29296875 26.48046875 C158.46080889 27.09290511 158.46080889 27.09290511 160.48046875 27.16796875 C163.16773433 25.06516285 163.16773433 25.06516285 165.48046875 22.16796875 C171.9699141 17.13305425 179.60359659 17.38210911 187.48046875 18.16796875 C189.50062827 18.77079539 191.50973215 19.41920864 193.48046875 20.16796875 C193.82078125 19.30171875 193.82078125 19.30171875 194.16796875 18.41796875 C196.6404324 14.17945963 200.73860309 11.49321019 205.2734375 9.71484375 C213.36638917 7.70951059 221.11675639 8.44794795 228.32421875 12.625 C234.8188587 17.27243257 237.76117077 22.43112783 239.48046875 30.16796875 C239.48046875 35.44796875 239.48046875 40.72796875 239.48046875 46.16796875 C254.99046875 46.16796875 270.50046875 46.16796875 286.48046875 46.16796875 C287.14046875 43.19796875 287.80046875 40.22796875 288.48046875 37.16796875 C289.63663835 34.40379315 290.79735253 31.81407853 292.16796875 29.16796875 C292.52318604 28.47517822 292.87840332 27.7823877 293.24438477 27.06860352 C299.50023898 15.16616815 308.25799656 5.28064405 321.48046875 1.16796875 C327.09631105 0.17895577 332.53826657 0.00724037 338.21875 0 C339.13955856 -0.0033284 340.06036713 -0.0066568 341.00907898 -0.01008606 C342.94965112 -0.01512816 344.89023186 -0.01749523 346.83081055 -0.01733398 C349.77342272 -0.01951675 352.7156573 -0.03769139 355.65820312 -0.05664062 C357.55338415 -0.059576 359.44856694 -0.06155983 361.34375 -0.0625 C362.64425041 -0.07327827 362.64425041 -0.07327827 363.97102356 -0.08427429 C376.94517496 -0.03661507 386.97045588 3.31126045 396.57421875 12.171875 C414.33577348 30.77055218 418.1427386 57.52715614 417.73046875 82.140625 C417.03753649 104.06846641 410.44803864 125.79645055 394.94921875 141.85546875 C385.67274859 150.54482054 374.77266278 152.63979568 362.328125 152.6015625 C360.79604652 152.60942528 360.79604652 152.60942528 359.23301697 152.6174469 C357.08935447 152.62382322 354.94565678 152.62258764 352.80200195 152.61401367 C349.55420628 152.60549821 346.30816985 152.63433749 343.06054688 152.66601562 C326.56999011 152.72286187 314.76002425 151.34176751 302.58203125 139.2890625 C294.69732859 130.76738604 285.48046875 116.27162395 285.48046875 104.16796875 C279.54046875 104.66296875 279.54046875 104.66296875 273.48046875 105.16796875 C273.48832397 107.58351074 273.48832397 107.58351074 273.49633789 110.04785156 C273.5147871 116.16861387 273.52604254 122.28937387 273.53540039 128.41015625 C273.53977398 131.03192256 273.54711369 133.6536299 273.5559082 136.27539062 C273.58517138 145.2402497 273.56610539 154.20344034 273.48046875 163.16796875 C273.46828308 164.46806885 273.45609741 165.76816895 273.44354248 167.10766602 C273.39538798 170.91513764 273.31653167 174.7206526 273.2265625 178.52734375 C273.21271011 179.6684259 273.19885773 180.80950806 273.18458557 181.98516846 C272.91945656 190.90114857 270.99075337 198.13212876 264.73046875 204.73046875 C263.9940918 205.54733154 263.25771484 206.36419434 262.49902344 207.20581055 C260.34506343 209.46289764 258.11158815 211.13880493 255.51171875 212.85644531 C249.12730293 217.47056158 244.36926685 222.15587721 242.61901855 230.05661011 C241.28119064 240.52710707 241.8052162 251.22151675 242.15142822 261.74230957 C242.35967621 268.62719703 242.41490315 275.51558666 242.48914337 282.40294838 C242.52671049 284.7956048 242.59780218 287.18530545 242.67572021 289.57695007 C242.70835697 291.04111888 242.74062399 292.505296 242.77246094 293.96948242 C242.81183777 295.24248703 242.8512146 296.51549164 242.89178467 297.82707214 C242.37223322 302.04710742 241.85462666 303.52902931 238.48046875 306.16796875 C234.80338479 306.90768864 231.18127542 306.84016856 227.44140625 306.79907227 C226.31583313 306.80622757 225.19026001 306.81338287 224.03057861 306.820755 C220.30513078 306.83768165 216.58087951 306.81821446 212.85546875 306.796875 C210.27001852 306.79770332 207.68456833 306.80016131 205.09912109 306.80418396 C199.67853595 306.80704471 194.25839488 306.79284154 188.83789062 306.76489258 C182.57337939 306.73284058 176.30949066 306.73285638 170.04493523 306.75010735 C164.01564259 306.76597806 157.98663956 306.75913838 151.95733643 306.74217033 C149.39284781 306.73698037 146.82834127 306.73748014 144.26385498 306.74371529 C140.6820191 306.74915446 137.1012461 306.72883184 133.51953125 306.70141602 C131.92350067 306.71120483 131.92350067 306.71120483 130.29522705 306.72119141 C123.25679755 306.62940633 123.25679755 306.62940633 119.80084229 304.57524109 C117.97059512 301.23837977 118.1254788 298.91338636 118.31542969 295.11816406 C118.3739335 293.65977669 118.432254 292.20138195 118.49041748 290.74298096 C118.52853294 289.97102638 118.56664841 289.19907181 118.60591888 288.40372467 C118.79329582 284.26202101 118.85798939 280.11745741 118.9453125 275.97265625 C119.06366017 270.72022907 119.21487802 265.47584802 119.49853516 260.22949219 C121.16935819 238.02951308 121.16935819 238.02951308 112.15820312 218.60742188 C107.27163914 213.27682443 101.70820149 208.79623277 96.02844238 204.34753418 C91.71471212 200.65752058 89.63880657 196.71753766 88.48046875 191.16796875 C88.39078027 188.34587136 88.35424858 185.54924744 88.36694336 182.72753906 C88.36679733 181.87839432 88.36665131 181.02924957 88.36650085 180.15437317 C88.36719674 177.35158725 88.37497399 174.54886804 88.3828125 171.74609375 C88.38467783 169.80124956 88.38610119 167.85640489 88.38710022 165.91156006 C88.39091633 160.79549866 88.40073891 155.6794657 88.4118042 150.56341553 C88.42203777 145.3417601 88.42660201 140.12010007 88.43164062 134.8984375 C88.44236197 124.65493543 88.45942755 114.41145446 88.48046875 104.16796875 C84.19046875 104.16796875 79.90046875 104.16796875 75.48046875 104.16796875 C75.31546875 105.48796875 75.15046875 106.80796875 74.98046875 108.16796875 C72.84350399 118.88332062 66.70174978 130.02726733 59.48046875 138.16796875 C58.98417969 138.76738281 58.48789063 139.36679688 57.9765625 139.984375 C51.6999389 146.98696952 42.56152678 151.74590891 33.1242218 152.30841064 C32.31277206 152.31523865 31.50132233 152.32206665 30.6652832 152.32910156 C29.73694168 152.33870911 28.80860016 152.34831665 27.85212708 152.35821533 C26.36298042 152.36459015 26.36298042 152.36459015 24.84375 152.37109375 C23.80913132 152.37679382 22.77451263 152.3824939 21.70854187 152.3883667 C19.52063006 152.39780006 17.33270414 152.40434406 15.14477539 152.40820312 C11.82217134 152.41788367 8.50019275 152.44891316 5.17773438 152.48046875 C3.04557656 152.48700207 0.91341436 152.49225125 -1.21875 152.49609375 C-2.69271492 152.51461395 -2.69271492 152.51461395 -4.19645691 152.5335083 C-17.40302877 152.49152744 -26.7226337 147.89484001 -36.20703125 138.91796875 C-44.42721196 130.31246707 -52.51953125 116.40751089 -52.51953125 104.16796875 C-53.20917969 104.09320313 -53.89882813 104.0184375 -54.609375 103.94140625 C-61.74410761 102.9431309 -67.22780077 101.20281911 -72.51953125 96.16796875 C-79.37503402 87.01767663 -80.17832892 79.44211004 -79.51953125 68.16796875 C-78.37085162 61.05458574 -74.87520113 55.91186872 -69.51953125 51.16796875 C-64.2210135 47.43418639 -58.90848119 46.46375347 -52.51953125 46.16796875 C-52.39578125 45.54792969 -52.27203125 44.92789063 -52.14453125 44.2890625 C-48.50903402 28.67914628 -39.69478278 14.62365137 -26.48828125 5.34765625 C-18.25280797 0.41290837 -9.38676164 0.01227187 0 0 Z M313.65234375 26.3984375 C299.77319698 44.09684588 297.24301256 69.1910255 299.796875 90.8515625 C302.12979224 105.1888112 306.93846892 121.48325103 318.66796875 130.9296875 C323.51204489 134.03737606 327.36588737 135.29872853 333.16796875 135.23046875 C334.16183594 135.22144531 335.15570313 135.21242188 336.1796875 135.203125 C336.93894531 135.19152344 337.69820313 135.17992187 338.48046875 135.16796875 C338.11695313 134.55953125 337.7534375 133.95109375 337.37890625 133.32421875 C322.23872612 106.92595597 318.26214983 75.1462508 326.0546875 45.70556641 C328.53760515 36.95011875 332.14240706 29.15568435 336.48046875 21.16796875 C337.15322462 19.83769744 337.82288759 18.50580628 338.48046875 17.16796875 C327.64864418 16.56866698 321.20761112 18.33514353 313.65234375 26.3984375 Z M16.48046875 24.16796875 C1.17511599 42.8824024 -1.4523395 67.19245909 0.69873047 90.53662109 C2.58339648 104.65008657 7.97653985 121.66384622 19.60546875 130.73046875 C24.69525487 134.1041584 28.14815761 135.74550288 34.4375 134.6953125 C41.63618375 132.83714365 46.30312114 128.07552212 50.48046875 122.16796875 C53.90593443 116.30233988 56.61424995 110.95670676 57.48046875 104.16796875 C55.92199219 104.03841797 55.92199219 104.03841797 54.33203125 103.90625 C44.25767917 102.94477222 35.30537795 101.59497053 28.04296875 93.85546875 C21.887456 85.67718127 21.38176291 77.16196606 22.48046875 67.16796875 C24.6007995 59.76644383 29.06867328 54.34552696 35.48046875 50.16796875 C42.33989329 46.64063659 49.90648194 46.50745193 57.48046875 46.16796875 C54.21374763 35.05681864 48.85873212 25.2340019 38.63671875 19.1953125 C30.49810833 15.31767746 22.6303929 18.0180446 16.48046875 24.16796875 Z M206.50827026 30.10247803 C204.29801102 34.54425974 204.83859509 39.57510761 204.921875 44.42578125 C204.92420639 45.6063913 204.92653778 46.78700134 204.92893982 48.00338745 C204.93866372 50.49305471 204.96041914 52.98270029 204.9934082 55.47216797 C205.04288439 59.28646524 205.05489454 63.09947304 205.06054688 66.9140625 C205.07463065 69.33464916 205.09083424 71.75522462 205.109375 74.17578125 C205.1147377 75.31749786 205.1201004 76.45921448 205.12562561 77.63552856 C205.14161301 78.6969809 205.1576004 79.75843323 205.17407227 80.85205078 C205.18471207 81.78437531 205.19535187 82.71669983 205.20631409 83.67727661 C205.49930696 86.33911365 206.02285253 87.93135433 207.48046875 90.16796875 C211.20105235 92.64835782 213.07843446 92.63134078 217.48046875 92.16796875 C219.84544314 90.3008837 221.1407759 88.84735444 222.48046875 86.16796875 C222.59629829 84.47441823 222.65003777 82.77644857 222.67333984 81.07910156 C222.68940277 80.01749817 222.7054657 78.95589478 222.72201538 77.86212158 C222.76643238 72.99988396 222.80753664 68.13778369 222.83056641 63.27539062 C222.84712233 60.71084517 222.87440713 58.14634578 222.91259766 55.58203125 C222.96736428 51.88647493 222.98924219 48.19200126 223.00390625 44.49609375 C223.02657562 43.35215149 223.049245 42.20820923 223.07260132 41.02960205 C223.13433845 34.28801696 223.13433845 34.28801696 220.16650391 28.44433594 C217.59913751 25.90521762 217.59913751 25.90521762 213.98046875 25.41796875 C210.2850903 26.20983556 208.8154825 27.14092625 206.50827026 30.10247803 Z M172.48046875 40.16796875 C171.738647 43.69839615 171.77950308 47.16452299 171.81640625 50.76171875 C171.81162262 51.78599976 171.80683899 52.81028076 171.8019104 53.86560059 C171.79851361 56.02744079 171.80770047 58.1893325 171.82861328 60.35107422 C171.85538068 63.65709135 171.82885658 66.95971328 171.796875 70.265625 C171.80017914 72.36849707 171.80658544 74.47136702 171.81640625 76.57421875 C171.8062851 77.56079468 171.79616394 78.54737061 171.78573608 79.56384277 C171.86549016 84.24186502 171.94973767 86.4638501 174.83447266 90.29101562 C177.36772035 92.3531913 177.36772035 92.3531913 180.48046875 92.79296875 C184.66681495 91.92081329 185.90396913 90.58619974 188.48046875 87.16796875 C189.2222905 83.63754135 189.18143442 80.17141451 189.14453125 76.57421875 C189.14931488 75.54993774 189.15409851 74.52565674 189.1590271 73.47033691 C189.16242389 71.30849671 189.15323703 69.146605 189.13232422 66.98486328 C189.10555682 63.67884615 189.13208092 60.37622422 189.1640625 57.0703125 C189.16075836 54.96744043 189.15435206 52.86457048 189.14453125 50.76171875 C189.15971298 49.28185486 189.15971298 49.28185486 189.17520142 47.77209473 C189.09544734 43.09407248 189.01119983 40.8720874 186.12646484 37.04492188 C183.59321715 34.9827462 183.59321715 34.9827462 180.48046875 34.54296875 C176.29412255 35.41512421 175.05696837 36.74973776 172.48046875 40.16796875 Z M139.48046875 46.16796875 C137.86353811 49.40183002 138.29610207 52.94598731 138.27734375 56.5 C138.27164368 57.32876144 138.2659436 58.15752289 138.2600708 59.01139832 C138.25061627 60.76743288 138.24408502 62.52348522 138.24023438 64.27954102 C138.23054469 66.95946471 138.19953285 69.63861628 138.16796875 72.31835938 C138.16143702 74.02473503 138.15618721 75.73111617 138.15234375 77.4375 C138.13999695 78.23662308 138.12765015 79.03574615 138.1149292 79.85908508 C138.13320829 84.45127774 138.50868768 87.43244175 141.48046875 91.16796875 C144.65925569 92.75736222 146.97614595 92.58373586 150.48046875 92.16796875 C153.87941551 89.01827397 155.72840704 86.84101744 156.09570312 82.16967773 C156.1150003 80.66791289 156.1064974 79.16560441 156.07421875 77.6640625 C156.07425903 76.86315689 156.07429932 76.06225128 156.07434082 75.23707581 C156.0690024 73.55193185 156.05149151 71.8667871 156.02246094 70.18188477 C155.98053302 67.6094118 155.98140288 65.03955474 155.98828125 62.46679688 C155.97778971 60.82420065 155.96485179 59.18161784 155.94921875 57.5390625 C155.94891663 56.39201088 155.94891663 56.39201088 155.9486084 55.2217865 C155.84901935 50.70904731 155.29786464 47.73907611 152.48046875 44.16796875 C147.03687845 40.53890855 144.06657868 41.8366427 139.48046875 46.16796875 Z M105.48046875 54.16796875 C104.99206599 56.97349782 104.79904413 59.15908003 104.8515625 61.953125 C104.84915054 62.6912291 104.84673859 63.42933319 104.84425354 64.18980408 C104.84522949 65.74385982 104.85856333 67.2979514 104.88354492 68.85180664 C104.91792255 71.22727619 104.90417912 73.59903597 104.88476562 75.97460938 C104.891663 77.48829704 104.90133441 79.00197514 104.9140625 80.515625 C104.90910263 81.22300308 104.90414276 81.93038116 104.89903259 82.65919495 C104.9792725 86.02490815 105.26746492 87.882126 107.30102539 90.61108398 C110.53597402 92.92196865 112.60363257 92.78010078 116.48046875 92.16796875 C119.95323455 89.49398336 121.32596619 88.00799623 122.12744141 83.65039062 C122.16016593 82.31288815 122.16443242 80.97447348 122.14453125 79.63671875 C122.14931488 78.92318237 122.15409851 78.209646 122.1590271 77.4744873 C122.16241685 75.97173853 122.15327883 74.46891509 122.13232422 72.96630859 C122.10553658 70.673774 122.13209406 68.38613341 122.1640625 66.09375 C122.16075823 64.62889551 122.15435161 63.16404405 122.14453125 61.69921875 C122.15971298 60.67870422 122.15971298 60.67870422 122.17520142 59.63757324 C122.08205923 55.83070629 121.53917881 54.24108536 119.12646484 51.23632812 C116.62606493 48.96758938 116.62606493 48.96758938 113.48046875 48.54296875 C109.392283 49.39467412 108.07061935 50.92174346 105.48046875 54.16796875 Z M372.48046875 63.16796875 C371.23936485 67.56413826 371.29655407 71.7539545 371.29296875 76.29296875 C371.28072266 77.11667969 371.26847656 77.94039062 371.25585938 78.7890625 C371.2506361 80.91667589 371.35784555 83.04388552 371.48046875 85.16796875 C372.14046875 85.82796875 372.80046875 86.48796875 373.48046875 87.16796875 C377.12155421 85.25160798 378.97549073 84.0125035 380.48046875 80.16796875 C381.19614094 75.12497635 380.98762954 71.20040322 378.73046875 66.60546875 C376.53656819 64.22874315 375.65181867 63.39449374 372.48046875 63.16796875 Z M-59.58203125 66.04296875 C-62.84610084 69.62291604 -62.798517 72.22682672 -62.73828125 76.91015625 C-62.43842992 80.0050503 -61.52265616 81.80714297 -59.51953125 84.16796875 C-58.19953125 84.82796875 -56.87953125 85.48796875 -55.51953125 86.16796875 C-55.51953125 78.90796875 -55.51953125 71.64796875 -55.51953125 64.16796875 C-57.73744921 63.94374449 -57.73744921 63.94374449 -59.58203125 66.04296875 Z M129.48046875 103.16796875 C128.55234375 103.80734375 127.62421875 104.44671875 126.66796875 105.10546875 C121.92554046 108.17409882 118.26577217 108.29689867 112.79296875 108.23046875 C112.09107422 108.22595703 111.38917969 108.22144531 110.66601562 108.21679688 C108.93746337 108.20503802 107.2089551 108.18710329 105.48046875 108.16796875 C105.31796041 118.4602689 105.19373902 128.75226168 105.11778355 139.04558563 C105.08131987 143.82577472 105.03189706 148.60508327 104.95239258 153.38476562 C104.87608478 158.0013946 104.83442685 162.6171791 104.81632805 167.23439026 C104.80343804 168.99188017 104.77826561 170.74932614 104.74035835 172.50645447 C104.15536177 183.46341749 104.15536177 183.46341749 108.71142578 192.99707031 C109.93554074 194.09120442 111.18998755 195.15295883 112.48046875 196.16796875 C113.33809814 197.05258789 114.19572754 197.93720703 115.0793457 198.84863281 C115.86784912 199.61916992 116.65635254 200.38970703 117.46875 201.18359375 C118.33951172 202.04210937 119.21027344 202.900625 120.10742188 203.78515625 C121.91555758 205.55778675 123.72548941 207.32858679 125.53710938 209.09765625 C126.40142578 209.95101562 127.26574219 210.804375 128.15625 211.68359375 C129.33054565 212.83263184 129.33054565 212.83263184 130.52856445 214.00488281 C134.3365988 218.22491837 134.73822667 221.38686925 134.79931641 227.04785156 C134.80946966 227.7421867 134.81962292 228.43652184 134.83008385 229.15189743 C134.86063389 231.39162449 134.87785118 233.63122499 134.89453125 235.87109375 C134.91147225 237.25700975 134.92928961 238.64291533 134.94799805 240.02880859 C135.01110634 245.15840901 135.05726443 250.28820663 135.10546875 255.41796875 C135.22921875 266.88546875 135.35296875 278.35296875 135.48046875 290.16796875 C165.18046875 290.16796875 194.88046875 290.16796875 225.48046875 290.16796875 C225.69048887 267.35620676 225.69048887 267.35620676 225.8684082 244.54418945 C225.91833496 240.12341309 225.91833496 240.12341309 225.94548035 238.05119324 C225.96158681 236.60979656 225.97190429 235.16832789 225.97758484 233.72685242 C225.98735063 231.53797144 226.0157168 229.35002503 226.0480957 227.16137695 C226.05919876 225.92893753 226.07030182 224.69649811 226.08174133 223.42671204 C226.85122956 217.13779264 230.84053438 213.53648449 235.20703125 209.28125 C235.75531586 208.73816696 236.30360046 208.19508392 236.86849976 207.63554382 C238.60943671 205.9123266 240.35695121 204.19599085 242.10546875 202.48046875 C243.86021363 200.75335197 245.61346742 199.02478542 247.36386108 197.29325867 C248.45065792 196.21871141 249.54011692 195.14684866 250.63247681 194.07795715 C261.01595907 183.83265569 256.57390333 158.05497135 256.67433167 144.1330719 C256.68819399 141.71304079 256.70062213 139.29300106 256.7116394 136.87295532 C256.72419709 134.44370506 256.74171805 132.01447541 256.76419067 129.58529663 C256.79409697 126.12444632 256.80398014 122.66409016 256.80859375 119.203125 C256.82089523 118.14999115 256.83319672 117.0968573 256.84587097 116.0118103 C256.84291519 115.03732941 256.83995941 114.06284851 256.83691406 113.05883789 C256.84055969 112.20761856 256.84420532 111.35639923 256.84796143 110.47938538 C256.39485698 107.62949685 255.44724577 106.25296281 253.48046875 104.16796875 C251.01198737 103.55307271 251.01198737 103.55307271 248.21875 103.63671875 C247.18169922 103.6315625 246.14464844 103.62640625 245.07617188 103.62109375 C243.45098633 103.64429688 243.45098633 103.64429688 241.79296875 103.66796875 C240.72884766 103.6525 239.66472656 103.63703125 238.56835938 103.62109375 C232.57855579 103.6506913 228.44471401 104.25402538 223.26196289 107.25976562 C217.95791662 109.96376071 210.17548583 109.04121451 204.68359375 107.26171875 C202.29296875 106.16796875 202.29296875 106.16796875 200.25 105.04296875 C198.36127815 103.94634294 198.36127815 103.94634294 195.48046875 104.16796875 C193.53061218 104.99893431 193.53061218 104.99893431 191.54296875 106.10546875 C188.86520527 107.5449601 186.45946702 108.53484831 183.48046875 109.16796875 C183.37185042 111.87739268 183.29288298 114.58240775 183.23046875 117.29296875 C183.19695312 118.05351562 183.1634375 118.8140625 183.12890625 119.59765625 C183.03659613 124.95164321 183.90345043 127.93473484 187.48046875 132.16796875 C192.41520025 135.45778975 197.0278851 135.29978469 202.86328125 135.37890625 C204.29167862 135.4069497 205.72006391 135.43561395 207.1484375 135.46484375 C209.38460263 135.50622685 211.62053573 135.5431452 213.85693359 135.56933594 C216.02617837 135.59689699 218.19442141 135.6427297 220.36328125 135.69140625 C221.65637207 135.71122559 222.94946289 135.73104492 224.28173828 135.75146484 C227.48046875 136.16796875 227.48046875 136.16796875 229.40039062 137.31689453 C230.96891704 140.00508785 230.86934021 142.16232161 230.87890625 145.26171875 C230.88277344 146.45667969 230.88664062 147.65164062 230.890625 148.8828125 C230.87902344 150.13191406 230.86742187 151.38101563 230.85546875 152.66796875 C230.86707031 153.91707031 230.87867188 155.16617188 230.890625 156.453125 C230.88675781 157.64808594 230.88289063 158.84304688 230.87890625 160.07421875 C230.87552246 161.17056641 230.87213867 162.26691406 230.86865234 163.39648438 C230.48046875 166.16796875 230.48046875 166.16796875 229.15917969 168.00268555 C226.4556749 169.87933307 223.57761714 170.00202853 220.35546875 170.48046875 C211.29958225 172.07607622 205.38390957 175.07821074 200.04296875 182.66796875 C197.49792937 186.88165653 195.87992896 190.77120747 195.06640625 195.65234375 C194.91429687 196.544375 194.7621875 197.43640625 194.60546875 198.35546875 C194.42371094 199.61423828 194.42371094 199.61423828 194.23828125 200.8984375 C193.26513046 203.81287364 192.14353132 204.6938597 189.48046875 206.16796875 C183.54952952 205.95986562 183.54952952 205.95986562 180.79296875 203.91796875 C178.04837696 200.25851303 179.01054926 195.49870403 179.48046875 191.16796875 C181.9600758 178.84373134 187.97189362 168.33207562 198.48046875 161.16796875 C202.06469014 159.27251552 205.71663671 157.67012593 209.48046875 156.16796875 C210.41503906 155.79285156 211.34960938 155.41773438 212.3125 155.03125 C213.02792969 154.74636719 213.74335938 154.46148437 214.48046875 154.16796875 C214.48046875 153.17796875 214.48046875 152.18796875 214.48046875 151.16796875 C213.71492676 151.16385986 212.94938477 151.15975098 212.16064453 151.15551758 C208.64150515 151.12231815 205.12403691 151.05164311 201.60546875 150.98046875 C200.40148437 150.97466797 199.1975 150.96886719 197.95703125 150.96289062 C188.6081893 150.73425047 182.05936845 148.72933518 174.66796875 142.98046875 C168.24949631 134.72814704 166.78287314 127.48864396 166.85546875 117.16796875 C166.85546875 114.93876406 166.8431014 112.7095136 166.81640625 110.48046875 C166.82486572 109.02060547 166.82486572 109.02060547 166.83349609 107.53125 C166.65874756 106.36142578 166.65874756 106.36142578 166.48046875 105.16796875 C165.49046875 104.50796875 164.50046875 103.84796875 163.48046875 103.16796875 C162.92101562 103.52890625 162.3615625 103.88984375 161.78515625 104.26171875 C154.43894514 108.51354512 147.87332305 109.28435792 139.48046875 108.16796875 C136.41145612 107.13574829 134.24287574 105.92103472 131.48046875 104.16796875 C130.82046875 103.83796875 130.16046875 103.50796875 129.48046875 103.16796875 Z " fill="#000000" transform="translate(84.51953125,104.83203125)"/>
</svg>
