<?xml version="1.0" encoding="UTF-8"?>
<svg version="1.1" xmlns="http://www.w3.org/2000/svg" width="1280" height="720">
<path d="M0 0 C422.4 0 844.8 0 1280 0 C1280 237.6 1280 475.2 1280 720 C857.6 720 435.2 720 0 720 C0 482.4 0 244.8 0 0 Z " fill="#212121" transform="translate(0,0)"/>
<path d="M0 0 C284.46 0 568.92 0 862 0 C862 237.6 862 475.2 862 720 C748.48 720 634.96 720 518 720 C506.61528297 705.19986786 506.61528297 705.19986786 502.1875 698.8125 C501.17011447 697.35878422 500.1518548 695.90567988 499.1328125 694.453125 C498.61879883 693.72029297 498.10478516 692.98746094 497.57519531 692.23242188 C494.93326688 688.48818852 492.24925272 684.77464153 489.5625 681.0625 C489.0247998 680.31943604 488.48709961 679.57637207 487.93310547 678.81079102 C486.84043645 677.30156434 485.74749931 675.79253175 484.65429688 674.28369141 C481.87081798 670.44120888 479.09125401 666.5959003 476.3125 662.75 C475.76859619 661.99726807 475.22469238 661.24453613 474.66430664 660.46899414 C471.02638934 655.43073464 467.40842732 650.37866546 463.80126953 645.31835938 C458.23725805 637.51938454 452.61413768 629.76291881 447 622 C440.57894591 613.12132185 434.16146398 604.24076658 427.80126953 595.31835938 C422.23725805 587.51938454 416.61413768 579.76291881 411 572 C404.57894591 563.12132185 398.16146398 554.24076658 391.80126953 545.31835938 C386.7901413 538.29435105 381.72930529 531.30621493 376.67333984 524.31445312 C373.40770467 519.79764229 370.14530382 515.278495 366.88232422 510.75976562 C364.13748856 506.95884225 361.39181873 503.15852668 358.64453125 499.359375 C353.34317769 492.02666167 348.05344563 484.68638156 342.80126953 477.31835938 C337.7901413 470.29435105 332.72930529 463.30621493 327.67333984 456.31445312 C324.40615861 451.79550388 321.1419708 447.27439153 317.87792969 442.75317383 C315.15966599 438.98838678 312.43935801 435.22511039 309.71484375 431.46484375 C303.9301375 423.47643988 298.1920321 415.45884181 292.51708984 407.39208984 C287.28892951 399.97053547 281.967477 392.61734946 276.64111328 385.26611328 C273.92351827 381.513552 271.21205527 377.75656581 268.5 374 C267.41669638 372.49997854 266.33336304 370.99997854 265.25 369.5 C254.41666667 354.5 243.58333333 339.5 232.75 324.5 C232.2135083 323.75717773 231.6770166 323.01435547 231.12426758 322.24902344 C230.04332809 320.75231299 228.96243599 319.25556832 227.8815918 317.75878906 C225.1370246 313.95817363 222.39158034 310.15819702 219.64453125 306.359375 C214.34317769 299.02666167 209.05344563 291.68638156 203.80126953 284.31835938 C198.7901413 277.29435105 193.72930529 270.30621493 188.67333984 263.31445312 C185.40615861 258.79550388 182.1419708 254.27439153 178.87792969 249.75317383 C176.15966599 245.98838678 173.43935801 242.22511039 170.71484375 238.46484375 C164.9301375 230.47643988 159.1920321 222.45884181 153.51708984 214.39208984 C148.28892951 206.97053547 142.967477 199.61734946 137.64111328 192.26611328 C134.92351827 188.513552 132.21205527 184.75656581 129.5 181 C128.41669638 179.49997854 127.33336304 177.99997854 126.25 176.5 C115.41666667 161.5 104.58333333 146.5 93.75 131.5 C93.2135083 130.75717773 92.6770166 130.01435547 92.12426758 129.24902344 C91.04332809 127.75231299 89.96243599 126.25556832 88.8815918 124.75878906 C86.1370246 120.95817363 83.39158034 117.15819702 80.64453125 113.359375 C75.34317769 106.02666167 70.05344563 98.68638156 64.80126953 91.31835938 C59.23725805 83.51938454 53.61413768 75.76291881 48 68 C41.57955383 59.12216244 35.16084141 50.2437111 28.8034668 41.32055664 C25.97938621 37.36050139 23.13443122 33.41598324 20.28198242 29.47631836 C15.22041898 22.48469359 10.1807075 15.47814716 5.1875 8.4375 C4.66559082 7.70490967 4.14368164 6.97231934 3.60595703 6.2175293 C0 1.11715102 0 1.11715102 0 0 Z " fill="#CDCDCD" transform="translate(418,0)"/>
</svg>
