<svg id="visual" viewBox="0 0 900 600" width="900" height="600" xmlns="http://www.w3.org/2000/svg" xmlns:xlink="http://www.w3.org/1999/xlink" version="1.1"><g stroke-width="1" stroke-linejoin="bevel"><path d="M384 316L284 330L318 362Z" fill="#580000" stroke="#580000"></path><path d="M384 316L281 227L284 330Z" fill="#850000" stroke="#850000"></path><path d="M318 362L435 400L384 316Z" fill="#750000" stroke="#750000"></path><path d="M536 300L438 206L384 316Z" fill="#a01011" stroke="#a01011"></path><path d="M384 316L438 206L281 227Z" fill="#750000" stroke="#750000"></path><path d="M281 227L182 270L284 330Z" fill="#580000" stroke="#580000"></path><path d="M160 437L305 484L318 362Z" fill="#a01011" stroke="#a01011"></path><path d="M160 437L318 362L284 330Z" fill="#4b0000" stroke="#4b0000"></path><path d="M318 362L305 484L435 400Z" fill="#580000" stroke="#580000"></path><path d="M281 227L179 205L182 270Z" fill="#750000" stroke="#750000"></path><path d="M174 139L179 205L281 227Z" fill="#750000" stroke="#750000"></path><path d="M435 400L536 300L384 316Z" fill="#4b0000" stroke="#4b0000"></path><path d="M117 317L160 437L182 270Z" fill="#750000" stroke="#750000"></path><path d="M182 270L160 437L284 330Z" fill="#bc1e21" stroke="#bc1e21"></path><path d="M105 227L117 317L182 270Z" fill="#750000" stroke="#750000"></path><path d="M531 539L530 410L435 400Z" fill="#a01011" stroke="#a01011"></path><path d="M435 400L530 410L536 300Z" fill="#920809" stroke="#920809"></path><path d="M536 300L518 188L438 206Z" fill="#750000" stroke="#750000"></path><path d="M438 206L381 83L281 227Z" fill="#580000" stroke="#580000"></path><path d="M160 437L176 477L305 484Z" fill="#750000" stroke="#750000"></path><path d="M117 317L133 424L160 437Z" fill="#660000" stroke="#660000"></path><path d="M160 437L133 424L176 477Z" fill="#bc1e21" stroke="#bc1e21"></path><path d="M303 600L386 537L305 484Z" fill="#ae1819" stroke="#ae1819"></path><path d="M305 484L386 537L435 400Z" fill="#000000" stroke="#000000"></path><path d="M481 67L381 83L438 206Z" fill="#ae1819" stroke="#ae1819"></path><path d="M334 73L174 139L281 227Z" fill="#000000" stroke="#000000"></path><path d="M179 205L105 227L182 270Z" fill="#920809" stroke="#920809"></path><path d="M381 83L334 73L281 227Z" fill="#ae1819" stroke="#ae1819"></path><path d="M174 139L105 227L179 205Z" fill="#ca2529" stroke="#ca2529"></path><path d="M530 410L589 328L536 300Z" fill="#750000" stroke="#750000"></path><path d="M536 300L588 226L518 188Z" fill="#4b0000" stroke="#4b0000"></path><path d="M589 328L588 226L536 300Z" fill="#4b0000" stroke="#4b0000"></path><path d="M518 188L481 67L438 206Z" fill="#ca2529" stroke="#ca2529"></path><path d="M564 521L577 438L530 410Z" fill="#ca2529" stroke="#ca2529"></path><path d="M530 410L577 438L589 328Z" fill="#ca2529" stroke="#ca2529"></path><path d="M607 80L481 67L518 188Z" fill="#bc1e21" stroke="#bc1e21"></path><path d="M381 83L372 0L334 73Z" fill="#a01011" stroke="#a01011"></path><path d="M228 600L303 600L305 484Z" fill="#660000" stroke="#660000"></path><path d="M386 537L531 539L435 400Z" fill="#850000" stroke="#850000"></path><path d="M303 600L379 600L386 537Z" fill="#4b0000" stroke="#4b0000"></path><path d="M496 600L531 539L386 537Z" fill="#580000" stroke="#580000"></path><path d="M121 600L228 600L176 477Z" fill="#ca2529" stroke="#ca2529"></path><path d="M176 477L228 600L305 484Z" fill="#580000" stroke="#580000"></path><path d="M174 139L88 128L105 227Z" fill="#750000" stroke="#750000"></path><path d="M0 366L133 424L117 317Z" fill="#850000" stroke="#850000"></path><path d="M0 466L92 514L133 424Z" fill="#580000" stroke="#580000"></path><path d="M127 0L88 128L174 139Z" fill="#bc1e21" stroke="#bc1e21"></path><path d="M531 539L564 521L530 410Z" fill="#660000" stroke="#660000"></path><path d="M133 424L92 514L176 477Z" fill="#660000" stroke="#660000"></path><path d="M0 308L117 317L105 227Z" fill="#920809" stroke="#920809"></path><path d="M481 67L372 0L381 83Z" fill="#850000" stroke="#850000"></path><path d="M334 73L260 0L174 139Z" fill="#660000" stroke="#660000"></path><path d="M372 0L260 0L334 73Z" fill="#ae1819" stroke="#ae1819"></path><path d="M379 600L496 600L386 537Z" fill="#580000" stroke="#580000"></path><path d="M531 539L618 600L564 521Z" fill="#850000" stroke="#850000"></path><path d="M0 176L0 308L105 227Z" fill="#750000" stroke="#750000"></path><path d="M0 308L0 366L117 317Z" fill="#580000" stroke="#580000"></path><path d="M704 468L577 438L564 521Z" fill="#920809" stroke="#920809"></path><path d="M704 468L662 417L577 438Z" fill="#850000" stroke="#850000"></path><path d="M577 438L662 417L589 328Z" fill="#a01011" stroke="#a01011"></path><path d="M589 328L689 296L588 226Z" fill="#660000" stroke="#660000"></path><path d="M566 0L495 0L481 67Z" fill="#850000" stroke="#850000"></path><path d="M481 67L495 0L372 0Z" fill="#a01011" stroke="#a01011"></path><path d="M260 0L161 0L174 139Z" fill="#ae1819" stroke="#ae1819"></path><path d="M662 417L689 296L589 328Z" fill="#ae1819" stroke="#ae1819"></path><path d="M588 226L607 80L518 188Z" fill="#850000" stroke="#850000"></path><path d="M0 600L121 600L92 514Z" fill="#4b0000" stroke="#4b0000"></path><path d="M92 514L121 600L176 477Z" fill="#bc1e21" stroke="#bc1e21"></path><path d="M88 128L0 176L105 227Z" fill="#920809" stroke="#920809"></path><path d="M0 124L0 176L88 128Z" fill="#750000" stroke="#750000"></path><path d="M706 186L607 80L588 226Z" fill="#580000" stroke="#580000"></path><path d="M0 366L0 466L133 424Z" fill="#bc1e21" stroke="#bc1e21"></path><path d="M161 0L127 0L174 139Z" fill="#850000" stroke="#850000"></path><path d="M0 0L0 124L88 128Z" fill="#000000" stroke="#000000"></path><path d="M607 80L566 0L481 67Z" fill="#bc1e21" stroke="#bc1e21"></path><path d="M689 296L706 186L588 226Z" fill="#750000" stroke="#750000"></path><path d="M607 80L709 0L566 0Z" fill="#bc1e21" stroke="#bc1e21"></path><path d="M663 600L704 468L564 521Z" fill="#660000" stroke="#660000"></path><path d="M834 375L760 279L689 296Z" fill="#750000" stroke="#750000"></path><path d="M689 296L760 279L706 186Z" fill="#920809" stroke="#920809"></path><path d="M496 600L618 600L531 539Z" fill="#ae1819" stroke="#ae1819"></path><path d="M834 375L689 296L662 417Z" fill="#660000" stroke="#660000"></path><path d="M618 600L663 600L564 521Z" fill="#bc1e21" stroke="#bc1e21"></path><path d="M0 466L0 600L92 514Z" fill="#bc1e21" stroke="#bc1e21"></path><path d="M816 186L738 134L706 186Z" fill="#a01011" stroke="#a01011"></path><path d="M706 186L738 134L607 80Z" fill="#a01011" stroke="#a01011"></path><path d="M127 0L0 0L88 128Z" fill="#4b0000" stroke="#4b0000"></path><path d="M663 600L777 513L704 468Z" fill="#850000" stroke="#850000"></path><path d="M704 468L834 375L662 417Z" fill="#4b0000" stroke="#4b0000"></path><path d="M738 134L709 0L607 80Z" fill="#4b0000" stroke="#4b0000"></path><path d="M900 315L816 186L760 279Z" fill="#ca2529" stroke="#ca2529"></path><path d="M760 279L816 186L706 186Z" fill="#ca2529" stroke="#ca2529"></path><path d="M738 134L823 64L709 0Z" fill="#a01011" stroke="#a01011"></path><path d="M777 513L834 375L704 468Z" fill="#850000" stroke="#850000"></path><path d="M900 103L823 64L816 186Z" fill="#920809" stroke="#920809"></path><path d="M816 186L823 64L738 134Z" fill="#850000" stroke="#850000"></path><path d="M823 64L794 0L709 0Z" fill="#ca2529" stroke="#ca2529"></path><path d="M900 361L900 315L834 375Z" fill="#750000" stroke="#750000"></path><path d="M834 375L900 315L760 279Z" fill="#ae1819" stroke="#ae1819"></path><path d="M663 600L824 600L777 513Z" fill="#ca2529" stroke="#ca2529"></path><path d="M900 497L900 361L834 375Z" fill="#850000" stroke="#850000"></path><path d="M900 497L834 375L777 513Z" fill="#850000" stroke="#850000"></path><path d="M900 315L900 194L816 186Z" fill="#920809" stroke="#920809"></path><path d="M823 64L900 0L794 0Z" fill="#750000" stroke="#750000"></path><path d="M824 600L900 497L777 513Z" fill="#ca2529" stroke="#ca2529"></path><path d="M900 194L900 103L816 186Z" fill="#660000" stroke="#660000"></path><path d="M824 600L900 600L900 497Z" fill="#580000" stroke="#580000"></path><path d="M900 103L900 0L823 64Z" fill="#a01011" stroke="#a01011"></path></g></svg>