<svg id="visual" viewBox="0 0 960 540" width="960" height="540" xmlns="http://www.w3.org/2000/svg" xmlns:xlink="http://www.w3.org/1999/xlink" version="1.1"><rect x="0" y="0" width="960" height="540" fill="#FFFFFF"></rect><path d="M542 540L532.5 527.2C523 514.3 504 488.7 502.3 463C500.7 437.3 516.3 411.7 544.8 386C573.3 360.3 614.7 334.7 605 308.8C595.3 283 534.7 257 513.2 231.2C491.7 205.3 509.3 179.7 529 154C548.7 128.3 570.3 102.7 562.5 77C554.7 51.3 517.3 25.7 498.7 12.8L480 0L960 0L960 12.8C960 25.7 960 51.3 960 77C960 102.7 960 128.3 960 154C960 179.7 960 205.3 960 231.2C960 257 960 283 960 308.8C960 334.7 960 360.3 960 386C960 411.7 960 437.3 960 463C960 488.7 960 514.3 960 527.2L960 540Z" fill="#e9da6b" stroke-linecap="round" stroke-linejoin="miter"></path></svg>